<?xml version="1.0" encoding="iso-8859-1"?>
<!-- Generator: Adobe Illustrator 19.0.0, SVG Export Plug-In . SVG Version: 6.00 Build 0)  -->
<svg version="1.1" id="Layer_1" xmlns="http://www.w3.org/2000/svg" xmlns:xlink="http://www.w3.org/1999/xlink" x="0px" y="0px"
	 viewBox="0 0 511.999 511.999" style="enable-background:new 0 0 511.999 511.999;" xml:space="preserve">
<g>
	<g>
		<path d="M423.343,162.229c4.979-3.851,4.339-3.481,36.184-35.325c29.062-29.062,29.064-76.096,0-105.16
			c-28.992-28.992-76.167-28.992-105.159,0L341.31,34.801c-25.666-15.704-54.869-23.945-85.311-23.945
			c-30.442,0-59.645,8.241-85.311,23.945l-13.057-13.056c-28.992-28.992-76.167-28.992-105.159,0
			c-29.061,29.062-29.065,76.096,0,105.16c31.819,31.819,31.196,31.469,36.183,35.325L43.47,313.021
			c-9.718,32.431,2.291,67.405,29.881,87.027c6.582,4.681,129.562,92.148,136.874,97.35c27.553,19.594,64.351,19.342,91.547,0
			c27.139-19.302,109.82-78.107,136.874-97.349c27.59-19.623,39.599-54.596,29.881-87.027L423.343,162.229z M378.506,45.882
			c15.684-15.682,41.2-15.684,56.883,0c15.72,15.719,15.722,41.162,0,56.883l-22.988,22.988
			c-8.356-26.704-23.351-50.839-43.722-70.045L378.506,45.882z M76.609,102.766c-15.72-15.719-15.722-41.162,0-56.883
			c15.682-15.681,41.2-15.684,56.883,0l9.827,9.826c-20.158,19.005-35.267,43.021-43.722,70.045L76.609,102.766z M281.987,469.58
			c-15.709,11.173-36.604,10.931-51.975,0l-90.38-64.28c0.925-68.005,56.184-166.076,116.369-166.076
			c60.172,0,115.441,98.045,116.37,166.076C361.781,412.829,292.596,462.033,281.987,469.58z M404.7,382.304
			c-10.752-77.259-70.542-177.217-148.7-177.217c-78.143,0-137.944,99.935-148.701,177.217
			c-10.931-7.774-41.615-24.488-31.127-59.484c2.637-8.797,53.456-178.399,55.528-185.312c16.532-55.166,67.146-92.515,124.3-92.515
			c58.335,0,108.126,38.534,124.3,92.515l55.528,185.312C446.285,357.716,415.702,374.478,404.7,382.304z"/>
	</g>
</g>
<g>
	<g>
		<path d="M283.845,274.911h-55.692c-14.571,0-22.472,17.192-12.903,28.242l23.681,27.344v23.85c0,9.426,7.642,17.068,17.068,17.068
			s17.068-7.642,17.068-17.068v-23.85l23.681-27.344C306.286,292.139,298.463,274.911,283.845,274.911z"/>
	</g>
</g>
<g>
	<g>
		<circle cx="174.256" cy="166.849" r="22.579"/>
	</g>
</g>
<g>
	<g>
		<circle cx="338.43" cy="166.849" r="22.579"/>
	</g>
</g>
<g>
</g>
<g>
</g>
<g>
</g>
<g>
</g>
<g>
</g>
<g>
</g>
<g>
</g>
<g>
</g>
<g>
</g>
<g>
</g>
<g>
</g>
<g>
</g>
<g>
</g>
<g>
</g>
<g>
</g>
</svg>
