<svg width="36" height="36" viewBox="0 0 36 36" fill="none" xmlns="http://www.w3.org/2000/svg">
<g clip-path="url(#clip0_372_396)">
<path d="M29.1778 11.8198C29.516 11.5583 29.4726 11.5834 31.6357 9.42029C33.6098 7.44618 33.61 4.25126 31.6357 2.27701C29.6664 0.307647 26.4619 0.307647 24.4925 2.27701L23.6055 3.16394C21.8621 2.0972 19.8784 1.53741 17.8105 1.53741C15.7427 1.53741 13.759 2.0972 12.0155 3.16394L11.1286 2.27708C9.15925 0.307715 5.95476 0.307715 3.9854 2.27708C2.01135 4.25119 2.01108 7.44611 3.9854 9.42036C6.14679 11.5818 6.10447 11.558 6.44323 11.8199L3.37391 22.0628C2.71379 24.2658 3.52954 26.6415 5.40366 27.9744C5.85076 28.2923 14.2045 34.2338 14.7012 34.5871C16.5728 35.9181 19.0724 35.901 20.9198 34.5871C22.7633 33.276 28.3796 29.2815 30.2173 27.9744C32.0915 26.6415 32.9072 24.2658 32.2471 22.0629L29.1778 11.8198ZM26.1322 3.91665C27.1975 2.85141 28.9308 2.85127 29.9961 3.91665C31.0639 4.98441 31.0641 6.71269 29.9961 7.78059L28.4346 9.34211C27.867 7.52817 26.8484 5.88873 25.4646 4.58411L26.1322 3.91665ZM5.62497 7.78065C4.55715 6.7129 4.55701 4.98461 5.62497 3.91672C6.69021 2.85154 8.42359 2.85134 9.48891 3.91672L10.1564 4.58418C8.78714 5.87514 7.76082 7.5065 7.18649 9.34218L5.62497 7.78065ZM19.5758 32.6975C18.5088 33.4565 17.0894 33.44 16.0453 32.6975L9.90598 28.3311C9.96882 23.7117 13.7224 17.0499 17.8107 17.0499C21.898 17.0499 25.6523 23.7099 25.7154 28.3311C24.9961 28.8425 20.2965 32.1849 19.5758 32.6975ZM27.9115 26.769C27.1811 21.521 23.1197 14.7311 17.8106 14.7311C12.5025 14.7311 8.44037 21.5195 7.70967 26.769C6.96716 26.241 4.88286 25.1056 5.59529 22.7284C5.77441 22.1309 9.22643 10.6102 9.36718 10.1406C10.4902 6.3933 13.9283 3.85626 17.8106 3.85626C21.7732 3.85626 25.1554 6.47379 26.254 10.1406L30.0259 22.7284C30.7362 25.0988 28.6588 26.2374 27.9115 26.769Z" fill="#81C6E8"/>
<path d="M19.702 19.4741H15.919C14.9292 19.4741 14.3925 20.6419 15.0425 21.3925L16.6511 23.2499V24.87C16.6511 25.5103 17.1702 26.0294 17.8105 26.0294C18.4508 26.0294 18.9699 25.5103 18.9699 24.87V23.2499L20.5785 21.3925C21.2264 20.6444 20.695 19.4741 19.702 19.4741Z" fill="#81C6E8"/>
<path d="M12.2579 13.6674C13.105 13.6674 13.7917 12.9807 13.7917 12.1337C13.7917 11.2866 13.105 10.5999 12.2579 10.5999C11.4109 10.5999 10.7242 11.2866 10.7242 12.1337C10.7242 12.9807 11.4109 13.6674 12.2579 13.6674Z" fill="#81C6E8"/>
<path d="M23.4099 13.6674C24.257 13.6674 24.9436 12.9807 24.9436 12.1337C24.9436 11.2866 24.257 10.5999 23.4099 10.5999C22.5628 10.5999 21.8762 11.2866 21.8762 12.1337C21.8762 12.9807 22.5628 13.6674 23.4099 13.6674Z" fill="#81C6E8"/>
</g>
<defs>
<clipPath id="clip0_372_396">
<rect width="34.7789" height="34.7789" fill="white" transform="translate(0.421082 0.799988)"/>
</clipPath>
</defs>
</svg>
