<svg width="200" height="199" viewBox="0 0 200 199" fill="none" xmlns="http://www.w3.org/2000/svg">
<g clip-path="url(#clip0_372_334)">
<path d="M165.369 63.054C167.314 61.5572 167.064 61.701 179.503 49.3241C190.855 38.0285 190.856 19.7477 179.503 8.4513C168.178 -2.8171 149.75 -2.8171 138.425 8.4513L133.324 13.5262C123.299 7.42248 111.891 4.21943 99.9998 4.21943C88.1084 4.21943 76.7009 7.42248 66.6751 13.5262L61.5747 8.45169C50.2497 -2.81671 31.8219 -2.81671 20.4969 8.45169C9.14494 19.7473 9.14338 38.0281 20.4969 49.3245C32.9262 61.6917 32.6829 61.5556 34.6309 63.0544L16.9805 121.663C13.1844 134.268 17.8754 147.861 28.6528 155.488C31.2239 157.307 79.2631 191.303 82.1193 193.325C92.8822 200.941 107.256 200.843 117.88 193.325C128.481 185.823 160.778 162.967 171.346 155.488C182.124 147.861 186.815 134.268 183.019 121.663L165.369 63.054ZM147.854 17.8331C153.981 11.7379 163.948 11.7371 170.074 17.8331C176.215 23.9426 176.216 33.8316 170.074 39.9419L161.094 48.8768C157.83 38.4976 151.973 29.117 144.016 21.6522L147.854 17.8331ZM29.9254 39.9423C23.7848 33.8328 23.784 23.9438 29.9254 17.8335C36.0512 11.7387 46.0192 11.7375 52.1454 17.8335L55.9841 21.6526C48.1099 29.0393 42.2079 38.3736 38.9052 48.8771L29.9254 39.9423ZM110.151 182.513C104.015 186.856 95.8529 186.761 89.8486 182.513L54.5439 157.529C54.9052 131.097 76.4908 92.9798 100.001 92.9798C123.505 92.9798 145.095 131.087 145.458 157.529C141.321 160.455 114.296 179.58 110.151 182.513ZM158.086 148.591C153.886 118.563 130.531 79.7117 100 79.7117C69.4755 79.7117 46.1157 118.554 41.9138 148.591C37.6438 145.57 25.6579 139.073 29.7547 125.471C30.7848 122.052 50.636 56.1325 51.4454 53.4456C57.9032 32.0041 77.6744 17.4875 100 17.4875C122.787 17.4875 142.237 32.4647 148.555 53.4456L170.246 125.471C174.33 139.034 162.384 145.549 158.086 148.591Z" fill="white"/>
<path d="M110.877 106.85H89.1224C83.4306 106.85 80.3443 113.532 84.0822 117.827L93.3326 128.455V137.725C93.3326 141.389 96.3178 144.359 99.9998 144.359C103.682 144.359 106.667 141.389 106.667 137.725V128.455L115.917 117.827C119.643 113.546 116.587 106.85 110.877 106.85Z" fill="#FAF7F0"/>
<path d="M68.0689 73.6255C72.94 73.6255 76.8888 69.6964 76.8888 64.8496C76.8888 60.0029 72.94 56.0738 68.0689 56.0738C63.1978 56.0738 59.2489 60.0029 59.2489 64.8496C59.2489 69.6964 63.1978 73.6255 68.0689 73.6255Z" fill="#FAF7F0"/>
<path d="M132.199 73.6255C137.071 73.6255 141.019 69.6964 141.019 64.8496C141.019 60.0029 137.071 56.0738 132.199 56.0738C127.328 56.0738 123.38 60.0029 123.38 64.8496C123.38 69.6964 127.328 73.6255 132.199 73.6255Z" fill="#FAF7F0"/>
</g>
<defs>
<clipPath id="clip0_372_334">
<rect width="200" height="199" fill="white"/>
</clipPath>
</defs>
</svg>
